<?xml version="1.0"?>
<svg width="448" height="512" xmlns="http://www.w3.org/2000/svg" xmlns:svg="http://www.w3.org/2000/svg" xmlns:se="http://svg-edit.googlecode.com" class="svg-inline--fa fa-bell fa-w-14" data-icon="bell" data-prefix="fas">
 <g class="layer">
  <title>Layer 1</title>
  <path d="m224,512c35.320007,0 63.970001,-28.649994 63.970001,-64l-127.940002,0c0,35.350006 28.649994,64 63.970001,64zm215.390015,-149.710022c-19.320007,-20.759979 -55.470001,-51.98999 -55.470001,-154.289978c0,-77.699997 -54.480011,-139.899986 -127.940018,-155.16l0,-20.84c0,-17.67 -14.319992,-32 -31.979996,-32s-31.979996,14.33 -31.979996,32l0,20.84c-73.460007,15.259998 -127.940002,77.460003 -127.940002,155.16c0,102.299988 -36.150002,133.529999 -55.470002,154.289978c-6,6.450012 -8.66,14.160004 -8.61,21.710022c0.11,16.399994 12.98,32 32.099998,32l383.799995,0c19.119995,0 32,-15.600006 32.100006,-32c0.049988,-7.550018 -2.610016,-15.27002 -8.610016,-21.710022l0.000031,0z" fill="#007fff" id="svg_1"/>
 </g>
</svg>